<?xml version="1.0" encoding="UTF-8"?>
<!-- Created with Inkscape (http://www.inkscape.org/) -->
<svg width="186.69mm" height="40.377mm" version="1.1" viewBox="0 0 186.69 40.377" xmlns="http://www.w3.org/2000/svg">
 <g transform="translate(-14.777 -137.73)" stroke-width="1.1866">
  <path class="st0" d="m74.698 169.76c-6.7993 0-10.991-4.8004-10.991-11.981 0-6.4898 3.6071-11.981 10.991-11.981 5.4963 0 8.9618 2.8076 9.8312 7.4461h-3.6726c-0.46568-1.9285-1.8923-4.4997-6.1895-4.4997-4.7333 0-7.5802 3.4982-7.5802 9.035 0 5.3885 2.6806 9.0374 7.5802 9.0374 2.3437 0 5.2986-0.76352 6.1895-4.368h3.6726c-0.8426 4.3662-4.1783 7.3144-9.8312 7.3144v-4e-3z"/>
  <path class="st0" d="m94.497 169.76c-4.6636 0-8.2756-3.3257-8.2756-8.7051 0-5.4963 3.7166-8.7728 8.2756-8.7728 4.5905 0 8.2756 3.332 8.2756 8.736 0 5.3862-3.7001 8.7396-8.2721 8.7396l-0.0036 4e-3zm-0.03143-2.8455c2.4604 0 4.9317-1.8514 4.9317-5.8916 0-4.1992-2.5349-5.894-4.8652-5.894-2.1308 0-4.9293 1.4443-4.9293 5.894 0 4.0888 2.4438 5.8916 4.8628 5.8916z"/>
  <path class="st0" d="m113.53 177.04c-4.2374 0-7.9041-2.1734-8.5402-6.3201h3.3095c0.64453 2.2222 2.7213 3.4402 5.1951 3.4402 2.0073 0 5.2616-1.0023 5.2616-5.6958v-2.2511c-0.88787 1.4917-2.666 3.2799-6.0886 3.2799-4.9839 0-8.1439-3.9339-8.1439-8.6055 0-5.218 3.6935-8.6055 8.1748-8.6055 3.0972 0 5.1401 1.6622 6.0542 3.1113l0.33009-2.715h2.9808v15.688c0 6.7089-4.949 8.6719-8.5402 8.6719h9e-3zm-0.26238-10.393c3.2607 0 5.3944-2.4274 5.3944-5.7599 0-3.4463-2.2046-5.7243-5.3944-5.7243-2.9265 0-5.36 2.0726-5.36 5.7243 0 3.6007 2.4203 5.7599 5.36 5.7599z"/>
  <path class="st0" d="m125.21 169.37v-16.683h2.9796l0.19823 2.8455c1.491-2.8551 4.2189-3.2431 5.5914-3.2431 5.5331 0 6.4209 4.394 6.4209 7.2136v9.8645h-3.3095v-9.5322c0-3.094-1.4015-4.7347-4.0049-4.7347-2.3509 0-4.5697 1.71-4.5697 5.3636v8.9045h-3.3096 4e-3z"/>
  <path class="st0" d="m145.03 149.54c-1.3068 0-2.1846-0.8928-2.1846-2.1169 0-1.2463 0.94502-2.0529 2.1846-2.0529 1.2787 0 2.1834 0.87892 2.1834 2.0529 0 1.2227-0.92186 2.1169-2.1834 2.1169zm-1.6566 19.827v-16.683h3.3095v16.683z"/>
  <path class="st0" d="m156.55 169.36c-3.2724 0-5.1642-1.4046-5.1642-5.2983v-8.6055h-2.8788v-2.7791h2.8788l0.43055-4.2031h2.8788v4.2031h4.7014v2.7791h-4.7014v8.6387c0 1.758 0.59347 2.4492 2.6486 2.4492h1.9188v2.8123h-2.715z"/>
  <path class="st0" d="m163.09 149.54c-1.3066 0-2.1846-0.89265-2.1846-2.1169 0-1.2464 0.94518-2.0529 2.1846-2.0529 1.279 0 2.1834 0.87923 2.1834 2.0529 0 1.2256-0.92513 2.1169-2.1834 2.1169zm-1.6565 19.827v-16.683h3.3096v16.683z"/>
  <path class="st0" d="m175.54 169.76c-4.6645 0-8.2768-3.3266-8.2768-8.7051 0-5.4824 3.7061-8.7728 8.2768-8.7728 4.5914 0 8.2756 3.336 8.2756 8.736 0 5.3802-3.6969 8.7396-8.2732 8.7396l-3e-3 4e-3zm-0.0358-2.8455c2.4612 0 4.9328-1.8514 4.9328-5.8916 0-4.2023-2.5382-5.894-4.8652-5.894-2.0995 0-4.9293 1.4121-4.9293 5.894 0 4.1006 2.4527 5.8916 4.8616 5.8916z"/>
  <path class="st0" d="m186.28 169.37v-16.683h2.9808l0.19823 2.8455c1.4906-2.8544 4.217-3.2431 5.5914-3.2431 4.2328 0 6.4209 2.6671 6.4209 7.2136v9.8645h-3.3095v-9.5322c0-2.0537-0.6437-4.7347-4.0049-4.7347-2.3366 0-4.5697 1.6942-4.5697 5.3636v8.9045h-3.3095 3e-3z"/>
  <path class="st0" d="m39.167 155.54c0.84846-0.48774 1.8974-0.48774 2.7459 0l2.1929 1.2661c0.34838 0.19148 0.68547 0.18106 1.0225-5e-4l4.3834-2.5323c0.31439-0.18029 0.50671-0.515 0.50671-0.8781v-5.0634c0-0.36328-0.1924-0.69894-0.50671-0.87811l-4.3834-2.5323c-0.31439-0.18031-0.70131-0.18031-1.0157 0l-4.3834 2.5323c-0.26369 0.1778-0.51306 0.45907-0.51306 0.88708v2.5323c0 0.97659-0.52447 1.8879-1.3729 2.3757-0.84846 0.48768-1.8974 0.48768-2.7459 0l-2.1929-1.2657c-0.46985-0.27058-0.95152-0.0497-1.0194-7e-3l-4.3834 2.5323c-0.31444 0.1803-0.5067 0.51501-0.5067 0.87811v5.0634c0 0.36327 0.19222 0.69892 0.5067 0.87809 1.4694 0.84487 2.9332 1.7016 4.4049 2.5413 0.29351 0.15057 0.6327 0.18995 1.0015-8e-3l2.1929-1.2661c0.84841-0.48768 1.8974-0.48768 2.7447 0 0.84487 0.48769 1.3729 1.4002 1.3729 2.3768v2.5323c0.0019 0.39738 0.22253 0.64724 0.51351 0.88532l4.3834 2.5323c0.31175 0.1833 0.7022 0.18306 1.0134 0l4.3834-2.5323c0.31439-0.18029 0.50666-0.51495 0.50666-0.87809v-5.0633c0-0.36328-0.1924-0.69894-0.50666-0.87815l-4.3834-2.5323c-0.34578-0.17938-0.66742-0.14455-1.0114 7e-3l-2.1929 1.2661c-0.84491 0.48773-1.8974 0.48773-2.7447 0-0.84491-0.48769-1.373-1.4002-1.373-2.3768 0-0.97659 0.52451-1.8879 1.373-2.3768l-0.0036-0.0134z"/>
  <path class="st0" d="m15.285 154.27 4.3834 2.5323c0.3113 0.18324 0.7023 0.18311 1.0134 0 1.4659-0.85041 2.9382-1.691 4.4013-2.5457 0.35014-0.20864 0.49266-0.58437 0.49266-0.87232v-2.5323c0-0.97664 0.52448-1.888 1.3729-2.3757 0.84844-0.48769 1.8974-0.48769 2.7459 0l2.1929 1.2661c0.13685 0.079 0.52674 0.25225 1.0015 8e-3 1.4704-0.84233 2.9372-1.6934 4.4049-2.5413 0.31439-0.18029 0.50671-0.515 0.50671-0.8781v-5.0634c0-0.36329-0.1924-0.69894-0.50671-0.87811l-4.3834-2.5323c-0.31448-0.1803-0.7013-0.1803-1.0158 0-1.4659 0.85041-2.9382 1.691-4.4013 2.5457-0.38564 0.23443-0.49275 0.62763-0.49275 0.87367v2.5323c0 0.97659-0.52449 1.8879-1.3729 2.3768-0.84489 0.48773-1.8974 0.48773-2.7459 0l-2.1929-1.2661c-0.34408-0.18796-0.6721-0.14674-1.0194-7e-3l-4.3834 2.5323c-0.31448 0.1803-0.50669 0.51501-0.50669 0.8781v5.0634c0 0.36328 0.19222 0.69893 0.50669 0.8781v4e-3z"/>
  <path class="st0" d="m37.287 168.61-4.3834-2.5323s-0.01522-5e-3 -0.02152-9e-3c-0.3311-0.16938-0.66408-0.16515-0.99911 0.0125l-2.1929 1.2661c-0.84488 0.48769-1.8974 0.48769-2.7423 0-0.84844-0.48774-1.3729-1.4002-1.3729-2.3768v-2.5323c0-0.15429-0.04232-0.59032-0.49139-0.87327-0.0054-4e-3 -0.01171-9e-3 -0.01792-0.0134l-4.3834-2.5323c-0.31448-0.18029-0.7013-0.18029-1.0158 0l-4.3834 2.5323c-0.31448 0.18029-0.50669 0.515-0.50669 0.8781v5.0634c0 0.36328 0.19222 0.69889 0.50669 0.87811l4.3834 2.5323c0.34369 0.18308 0.67257 0.16105 1.0158-5e-4l2.1929-1.2661c0.84844-0.48774 1.8974-0.48774 2.7459 0 0.84487 0.48769 1.3729 1.4002 1.3729 2.3768v2.5323c0 0.4525 0.25018 0.73699 0.51012 0.88707l4.3834 2.5323c0.31128 0.18323 0.70228 0.18312 1.0134 0l4.3834-2.5323c0.31439-0.18029 0.50671-0.515 0.50671-0.8781v-5.0634c0-0.36328-0.1924-0.69893-0.50671-0.87811z"/>
 </g>
</svg>
