<svg xmlns="http://www.w3.org/2000/svg" viewBox="225 225 574 574"><rect width="1024" height="1024" x="0" y="0" fill="#3F7A2E" rx="180"/><path fill="#fff" d="M649.8,273.99c-42.16-24.65-88.09-36.99-137.8-36.99s-95.65,12.33-137.8,36.99c-42.16,24.66-75.56,58.07-100.22,100.22-24.66,42.16-36.99,88.09-36.99,137.8s12.32,95.65,36.99,137.8c24.65,42.15,58.06,75.55,100.22,100.22,42.15,24.65,88.08,36.98,137.8,36.98s95.64-12.33,137.8-36.98c42.15-24.66,75.55-58.07,100.22-100.22,24.65-42.15,36.99-88.08,36.99-137.8s-12.33-95.64-36.99-137.8c-24.66-42.15-58.07-75.55-100.22-100.22ZM525.72,608.04c-28.24,0-51.4-8.45-69.5-25.35-11.99-11.19-19.98-24.62-24.02-40.27h288.97c-3.07,23.05-9.69,44.92-19.88,65.62h-175.57ZM432.28,482.77c4.07-15.38,12.03-28.71,23.94-39.97,18.09-17.09,41.25-25.65,69.5-25.65h176.16c10.03,20.7,16.52,42.58,19.46,65.62h-289.05ZM328.87,404.33c18.69-32.81,44.24-58.76,76.65-77.85,32.41-19.09,67.9-28.63,106.48-28.63s74.06,9.54,106.48,28.63c15.53,9.15,29.44,19.92,41.82,32.21h-133.98c-31.42,0-59.35,6.56-83.81,19.69-24.46,13.12-43.45,31.12-56.97,53.99-9.2,15.55-15.19,32.38-18.13,50.41h-64.75c3.55-27.86,12.28-54.01,26.2-78.44ZM618.48,697.52c-32.42,19.09-67.91,28.63-106.48,28.63s-74.07-9.54-106.48-28.63c-32.42-19.09-57.97-45.04-76.65-77.85-13.73-24.09-22.39-49.84-26.04-77.25h64.58c2.94,18.04,8.93,34.86,18.13,50.41,13.52,22.87,32.51,40.86,56.97,53.99,24.46,13.12,52.39,19.69,83.81,19.69h132.73c-12.07,11.79-25.55,22.17-40.56,31.02Z"/></svg>
